#!OML:ASF E:\emotionWalksFemale\Project 1\Capture day 1\Session 1\Female1.ASF
:FULLY-SPECIFIED
:DEGREES
2153
root 10.8693 14.6404 40.09 -12.9836 154.915 360.684
lowerback -2.94795 -4.51506 3.15422
upperback -4.8674 -5.57585 4.05622
thorax -3.27949 -2.6559 2.41491
lowerneck -3.31989 10.257 4.72195
upperneck 34.9262 18.8186 -0.901636
head 12.7743 10.3527 1.39526
rclavicle 3.57812e-014 -1.11319e-014
rhumerus -54.6984 1.23782 -72.284
rradius 31.7604
rwrist 17.2828
rhand 171.613 -236.065
rfingers 7.12502
rthumb -162.464 -265.294
lclavicle 3.57812e-014 -1.11319e-014
lhumerus -49.73 -3.53917 93.2307
lradius 32.3894
lwrist -20.3811
lhand -1.39797 -34.567
lfingers 7.12502
lthumb 24.2507 -6.08056
rfemur 4.31278 7.1182 30.6161
rtibia 36.1626
rfoot -32.4546 -28.2888
rtoes 8.39423
lfemur -0.429465 14.9484 -16.7341
ltibia 42.4219
lfoot -35.4006 15.2966
ltoes -12.5927
2154
root 10.8726 14.6217 40.0875 -12.8344 154.758 360.935
lowerback -3.02404 -4.48094 3.42617
upperback -4.86668 -5.52362 4.13188
thorax -3.25754 -2.63254 2.33771
lowerneck -3.15395 10.3277 4.61044
upperneck 34.7228 18.8251 -0.732818
head 12.6193 10.3636 1.43897
rclavicle 5.24792e-014 -9.54166e-014
rhumerus -54.5518 1.021 -71.8845
rradius 31.2418
rwrist 16.8861
rhand 170.43 -236.047
rfingers 7.12502
rthumb -163.603 -265.374
lclavicle 5.24792e-014 -9.54166e-014
lhumerus -49.7608 -3.60796 93.2982
lradius 32.4319
lwrist -20.3407
lhand -1.43926 -34.7548
lfingers 7.12502
lthumb 24.2111 -6.26308
rfemur 4.05742 7.1921 30.8945
rtibia 36.0888
rfoot -30.6855 -29.9334
rtoes 2.3922
lfemur -0.518682 15.0222 -16.4583
ltibia 42.5153
lfoot -35.4428 15.3219
ltoes -11.1529
2155
root 10.8781 14.6418 40.0834 -12.8301 154.682 360.939
lowerback -3.09586 -4.44136 3.44168
upperback -4.83266 -5.47691 4.14485
thorax -3.18266 -2.60926 2.33453
lowerneck -3.12805 10.2912 4.78507
upperneck 34.6457 18.8315 -1.0028
head 12.6353 10.3564 1.3155
rclavicle -4.13472e-014 -4.13472e-014
rhumerus -54.427 1.07533 -71.928
rradius 31.1962
rwrist 16.2525
rhand 169.123 -237.07
rfingers 7.12502
rthumb -164.861 -266.496
lclavicle -4.13472e-014 -4.13472e-014
lhumerus -49.6492 -3.63469 93.3386
lradius 32.3219
lwrist -20.2882
lhand -1.42487 -34.7564
lfingers 7.12502
lthumb 24.2249 -6.26661
rfemur 4.27778 7.24245 30.9316
rtibia 36.174
rfoot -32.2678 -28.3997
rtoes 7.85487
lfemur -0.424556 15.0674 -16.4226
ltibia 42.4477
lfoot -35.4851 15.1922
ltoes -9.95816
2156
root 10.8806 14.6311 40.0803 -12.949 154.62 360.833
lowerback -3.0774 -4.3789 3.38456
upperback -4.78826 -5.40268 4.09977
thorax -3.14598 -2.57409 2.31843
lowerneck -3.27007 10.0824 5.46264
upperneck 34.7568 18.8092 -1.91788
head 12.9042 10.3228 0.924299
rclavicle 1.51076e-014 -2.22639e-014
rhumerus -54.3465 1.04275 -71.9468
rradius 31.6963
rwrist 16.8461
rhand 171.201 -236.272
rfingers 7.12502
rthumb -162.86 -265.536
lclavicle 1.51076e-014 -2.22639e-014
lhumerus -49.5049 -3.74405 93.3827
lradius 32.1548
lwrist -20.0766
lhand -1.3619 -34.5196
lfingers 7.12502
lthumb 24.2853 -6.03783
rfemur 4.32268 7.22054 30.8245
rtibia 36.0146
rfoot -31.3523 -28.8888
rtoes 4.18422
lfemur -0.363776 15.1333 -16.4768
ltibia 42.5685
lfoot -36.0699 14.7626
ltoes -7.72308
2157
root 10.8829 14.621 40.0785 -13.0443 154.62 360.693
lowerback -3.03842 -4.40211 3.23333
upperback -4.80059 -5.4318 4.10721
thorax -3.16445 -2.58474 2.41256
lowerneck -3.10876 10.3188 4.56668
upperneck 34.5966 18.8136 -0.809291
head 12.5604 10.3448 1.40374
rclavicle -1.59028e-014 -7.95139e-015
rhumerus -54.2024 1.17607 -71.881
rradius 31.83
rwrist 17.0247
rhand 172.039 -236.167
rfingers 7.12502
rthumb -162.054 -265.359
lclavicle -1.59028e-014 -7.95139e-015
lhumerus -49.492 -3.55013 93.3434
lradius 32.1252
lwrist -20.0145
lhand -1.32972 -34.3197
lfingers 7.12502
lthumb 24.3161 -5.84205
rfemur 4.23544 7.0447 30.6218
rtibia 36.0034
rfoot -30.439 -29.4472
rtoes 0.167392
lfemur -0.35018 15.1487 -16.5955
ltibia 42.6014
lfoot -35.8203 14.9543
ltoes -9.41406
2158
root 10.8846 14.6183 40.0777 -12.9991 154.67 360.755
lowerback -2.99679 -4.46722 3.2596
upperback -4.84474 -5.50794 4.14634
thorax -3.23173 -2.62081 2.44443
lowerneck -3.20345 10.1616 5.1416
upperneck 34.7473 18.9126 -1.74173
head 12.8337 10.3573 1.03778
rclavicle 7.55382e-014 1.74931e-014
rhumerus -54.1161 1.35609 -71.8867
rradius 31.8504
rwrist 17.135
rhand 172.081 -236.268
rfingers 7.12502
rthumb -162.013 -265.457
lclavicle 7.55382e-014 1.74931e-014
lhumerus -49.5519 -3.28104 93.2443
lradius 32.1417
lwrist -20.0774
lhand -1.47181 -34.3706
lfingers 7.12502
lthumb 24.1799 -5.87473
rfemur 4.24884 6.931 30.6492
rtibia 35.8939
rfoot -30.386 -29.4964
rtoes 2.03756
lfemur -0.436792 15.1357 -16.5341
ltibia 42.7284
lfoot -35.7655 14.9545
ltoes -9.91569
2159
root 10.8865 14.6177 40.0831 -12.7883 154.74 360.842
lowerback -3.03363 -4.48735 3.30123
upperback -4.91781 -5.52507 4.16728
thorax -3.28945 -2.62732 2.4444
lowerneck -3.16968 10.3248 4.62092
upperneck 34.6461 18.8536 -0.894864
head 12.6126 10.3566 1.38126
rclavicle -1.51076e-014 -2.06736e-014
rhumerus -54.093 1.53169 -72.0699
rradius 31.9849
rwrist 16.8063
rhand 171.911 -236.442
rfingers 7.12502
rthumb -162.177 -265.645
lclavicle -1.51076e-014 -2.06736e-014
lhumerus -49.6307 -3.2562 93.2221
lradius 32.1917
lwrist -20.0615
lhand -1.66205 -34.5789
lfingers 7.12502
lthumb 23.9975 -6.05888
rfemur 4.06449 6.96054 30.7403
rtibia 35.8358
rfoot -30.5314 -29.3915
rtoes 1.84072
lfemur -0.704363 15.1085 -16.4972
ltibia 42.8338
lfoot -35.6527 15.0196
ltoes -10.6184
2160
root 10.8866 14.6174 40.0886 -12.6218 154.843 360.972
lowerback -3.02895 -4.50934 3.40159
upperback -4.94866 -5.5471 4.18742
thorax -3.33242 -2.63904 2.4126
lowerneck -3.38491 10.0687 5.39778
upperneck 34.7688 18.8822 -2.15042
head 12.9595 10.3176 0.873119
rclavicle 5.48646e-014 -1.59028e-014
rhumerus -54.0272 1.61006 -72.2285
rradius 32.1167
rwrist 16.4745
rhand 171.809 -236.833
rfingers 7.12502
rthumb -162.275 -266.045
lclavicle 5.48646e-014 -1.59028e-014
lhumerus -49.5642 -3.24328 93.1714
lradius 32.1328
lwrist -20.0978
lhand -1.39437 -34.6174
lfingers 7.12502
lthumb 24.2542 -6.13145
rfemur 3.91726 6.84377 30.8302
rtibia 35.8538
rfoot -30.6054 -29.2286
rtoes 2.22551
lfemur -0.89851 15.0162 -16.4143
ltibia 42.9179
lfoot -35.5422 15.0118
ltoes -10.3362
2161
root 10.891 14.6147 40.085 -12.6325 154.943 360.948
lowerback -3.1311 -4.54542 3.31108
upperback -4.94479 -5.60182 4.17948
thorax -3.26169 -2.66372 2.44484
lowerneck -3.41092 9.98558 5.65349
upperneck 34.8348 18.9036 -2.54168
head 13.0749 10.3181 0.711154
rclavicle -8.98507e-014 3.18055e-014
rhumerus -53.9855 1.51395 -72.0947
rradius 32.1422
rwrist 16.8825
rhand 172.125 -236.735
rfingers 7.12502
rthumb -161.971 -265.919
lclavicle -8.98507e-014 3.18055e-014
lhumerus -49.5623 -3.15419 93.0523
lradius 32.0801
lwrist -20.245
lhand -0.914931 -34.4849
lfingers 7.12502
lthumb 24.7137 -6.06118
rfemur 3.92584 6.64332 30.7554
rtibia 35.9072
rfoot -30.55 -29.1916
rtoes 1.59822
lfemur -0.86653 14.9824 -16.4205
ltibia 42.9389
lfoot -35.3581 14.9375
ltoes -10.3758
2162
root 10.894 14.6149 40.0935 -12.6319 154.974 360.827
lowerback -3.03973 -4.55436 3.10005
upperback -4.97457 -5.61065 4.16143
thorax -3.32378 -2.66359 2.55099
lowerneck -3.3971 10.0794 5.17405
upperneck 34.7965 18.846 -1.91939
head 12.9168 10.3008 0.98224
rclavicle 4.85035e-014 -4.77083e-015
rhumerus -53.8156 1.33238 -71.8367
rradius 32.1312
rwrist 17.3752
rhand 172.67 -236.157
rfingers 7.12502
rthumb -161.447 -265.292
lclavicle 4.85035e-014 -4.77083e-015
lhumerus -49.4916 -3.0601 92.8841
lradius 32.0138
lwrist -20.5965
lhand -0.662463 -34.5424
lfingers 7.12502
lthumb 24.9557 -6.15204
rfemur 3.78485 6.68628 30.6776
rtibia 35.9774
rfoot -30.4394 -29.253
rtoes 1.47825
lfemur -0.993952 14.9111 -16.5618
ltibia 42.9334
lfoot -35.0989 15.0909
ltoes -10.8734
2163
root 10.9 14.6169 40.0854 -12.6156 154.981 360.656
lowerback -3.23247 -4.57946 2.87746
upperback -5.01241 -5.64876 4.17563
thorax -3.23007 -2.67423 2.67265
lowerneck -3.15348 10.3635 4.2733
upperneck 34.5635 18.7854 -0.531576
head 12.4857 10.3227 1.5354
rclavicle 1.43125e-014 1.59028e-015
rhumerus -53.6835 1.35228 -71.6351
rradius 31.9979
rwrist 17.0892
rhand 172.095 -235.696
rfingers 7.12502
rthumb -162 -264.883
lclavicle 1.43125e-014 1.59028e-015
lhumerus -49.5712 -2.89514 92.8715
lradius 32.0119
lwrist -20.8325
lhand -0.594105 -34.5783
lfingers 7.12502
lthumb 25.0212 -6.19697
rfemur 3.68903 6.66931 30.4852
rtibia 36.0587
rfoot -30.5261 -29.3345
rtoes 0.886965
lfemur -1.03573 14.8709 -16.7696
ltibia 42.8719
lfoot -35.0597 15.2202
ltoes -11.3015
2164
root 10.9025 14.6111 40.0831 -12.8223 154.947 360.676
lowerback -3.07396 -4.59764 2.8564
upperback -4.96167 -5.67068 4.20604
thorax -3.26028 -2.68562 2.72598
lowerneck -3.17561 10.1413 4.95873
upperneck 34.6062 18.8587 -1.74594
head 12.7438 10.3087 1.0412
rclavicle -3.02153e-014 9.54166e-015
rhumerus -53.5605 1.40513 -71.5708
rradius 31.5451
rwrist 15.8281
rhand 169.416 -235.245
rfingers 7.12502
rthumb -164.579 -264.649
lclavicle -3.02153e-014 9.54166e-015
lhumerus -49.6551 -2.88691 92.9551
lradius 32.0904
lwrist -20.672
lhand -0.323745 -34.4255
lfingers 7.12502
lthumb 25.2802 -6.08053
rfemur 3.89096 6.62068 30.5324
rtibia 36.1603
rfoot -30.5231 -29.308
rtoes 0.249859
lfemur -0.754258 14.8395 -16.6851
ltibia 42.8418
lfoot -35.0483 15.1937
ltoes -12.0583
2165
root 10.9056 14.6156 40.0814 -12.612 154.985 360.618
lowerback -3.24995 -4.62372 2.81176
upperback -5.05499 -5.70295 4.19089
thorax -3.2552 -2.6977 2.72501
lowerneck -3.08942 10.3188 4.49395
upperneck 34.5309 18.8697 -0.990156
head 12.5459 10.3415 1.35231
rclavicle 4.21423e-014 -9.22361e-014
rhumerus -53.5357 1.50593 -71.6818
rradius 31.7889
rwrist 15.9189
rhand 170.721 -235.678
rfingers 7.12502
rthumb -163.322 -264.982
lclavicle 4.21423e-014 -9.22361e-014
lhumerus -49.7423 -2.92257 92.9218
lradius 32.1893
lwrist -20.5455
lhand 0.0724568 -34.3002
lfingers 7.12502
lthumb 25.6598 -6.00941
rfemur 3.62133 6.64551 30.4472
rtibia 36.229
rfoot -30.3207 -29.0936
rtoes 1.03044
lfemur -1.00372 14.8881 -16.786
ltibia 42.8066
lfoot -34.8483 15.1283
ltoes -12.6575
2166
root 10.906 14.61 40.0796 -12.8438 154.942 360.546
lowerback -3.06128 -4.62083 2.78444
upperback -5.00907 -5.70336 4.13019
thorax -3.31603 -2.70252 2.69124
lowerneck -3.22125 10.19 4.97996
upperneck 34.7164 18.9333 -1.67636
head 12.7982 10.3519 1.08436
rclavicle -8.26944e-014 -3.65764e-014
rhumerus -53.5583 1.66976 -71.8583
rradius 32.2029
rwrist 16.2507
rhand 171.8 -236.256
rfingers 7.12502
rthumb -162.283 -265.469
lclavicle -8.26944e-014 -3.65764e-014
lhumerus -49.8489 -2.89155 92.8356
lradius 32.2595
lwrist -20.6691
lhand 0.107008 -34.2774
lfingers 7.12502
lthumb 25.6929 -5.99143
rfemur 3.83593 6.63675 30.4083
rtibia 36.2651
rfoot -30.0546 -29.0742
rtoes 1.32322
lfemur -0.747399 15.107 -16.7086
ltibia 42.7819
lfoot -34.7242 14.9221
ltoes -12.2428
